#!OML:ASF X:\für Bonn\!DataBase\2005_08_10_Bjorn_Final\c3d\bjorn.ASF
:FULLY-SPECIFIED
:DEGREES
81
root 1.13931 19.4534 4.26919 -214.512 -48.8411 203.737
lowerback 35.1464 -1.45311 -2.33404
upperback 22.3013 -8.33203 1.22193
thorax 7.50374 -7.04765 4.20447
lowerneck -13.5366 -6.41571 -4.04194
upperneck 3.53512 -9.77937 16.5161
head 4.3659 -4.33635 4.94656
rclavicle 4.92986e-014 3.18055e-015
rhumerus -39.6451 -3.63489 -84.3605
rradius 19.8356
rwrist 20.2492
rhand -4.18741 12.2838
rfingers 7.12502
rthumb 21.574 -16.5345
lclavicle 4.92986e-014 3.18055e-015
lhumerus 71.3659 -18.5131 76.2871
lradius 102.374
lwrist -3.66247
lhand -49.1766 -23.3574
lfingers 7.12502
lthumb -21.7986 5.43497
rfemur -85.2793 -14.1413 18.9585
rtibia 130.208
rfoot 0.109856 19.2357
rtoes -14.1704
lfemur 5.22838 -16.5871 -7.25118
ltibia 18.6815
lfoot 7.75389 -26.3886
ltoes 21.5186
82
root 1.14801 19.4347 4.26626 -215.086 -48.8657 204.143
lowerback 35.6169 -1.41045 -2.18239
upperback 22.4072 -8.32512 1.24025
thorax 7.45497 -7.06548 4.16875
lowerneck -13.3232 -6.55069 -3.97942
upperneck 3.29155 -10.0121 16.9425
head 4.30691 -4.46742 5.05151
rclavicle -6.52014e-014 9.22361e-014
rhumerus -39.7977 -3.41142 -84.3462
rradius 19.8326
rwrist 20.1201
rhand -4.03584 12.1286
rfingers 7.12502
rthumb 21.7195 -16.6729
lclavicle -6.52014e-014 9.22361e-014
lhumerus 72.395 -19.1377 76.2001
lradius 102.431
lwrist -3.2726
lhand -49.0972 -23.3061
lfingers 7.12502
lthumb -21.7223 5.4951
rfemur -85.9699 -14.1509 19.1391
rtibia 130.406
rfoot 0.166639 19.27
rtoes -14.002
lfemur 5.11923 -16.8468 -7.08307
ltibia 19.3359
lfoot 7.48212 -26.4613
ltoes 21.6517
83
root 1.15529 19.4116 4.26176 -215.605 -48.8964 204.482
lowerback 36.0702 -1.36603 -2.05925
upperback 22.5019 -8.317 1.24558
thorax 7.40232 -7.08205 4.13341
lowerneck -13.0859 -6.69531 -3.967
upperneck 3.03461 -10.2516 17.4127
head 4.2472 -4.60454 5.1786
rclavicle -2.54444e-014 5.24792e-014
rhumerus -39.9433 -3.18911 -84.3524
rradius 19.7886
rwrist 20.02
rhand -3.96669 12.0203
rfingers 7.12502
rthumb 21.7859 -16.7736
lclavicle -2.54444e-014 5.24792e-014
lhumerus 73.2793 -19.7577 76.1119
lradius 102.487
lwrist -3.06621
lhand -49.1418 -23.2481
lfingers 7.12502
lthumb -21.7652 5.5481
rfemur -86.6125 -14.2812 19.3152
rtibia 130.593
rfoot 0.117738 19.399
rtoes -14.0984
lfemur 4.95867 -17.0968 -6.96575
ltibia 20.1159
lfoot 7.02484 -26.5799
ltoes 21.5619
84
root 1.16091 19.3857 4.25673 -216.082 -48.8912 204.795
lowerback 36.4522 -1.30792 -1.93913
upperback 22.6121 -8.29409 1.26612
thorax 7.3949 -7.09461 4.10379
lowerneck -12.8666 -6.83689 -3.96234
upperneck 2.75626 -10.4787 17.8646
head 4.18316 -4.73841 5.30245
rclavicle 3.65764e-014 -3.18055e-014
rhumerus -40.0439 -2.87283 -84.3959
rradius 19.7754
rwrist 19.8014
rhand -3.88375 11.8892
rfingers 7.12502
rthumb 21.8656 -16.8954
lclavicle 3.65764e-014 -3.18055e-014
lhumerus 74.109 -20.307 75.9932
lradius 102.566
lwrist -2.94317
lhand -49.2703 -23.0398
lfingers 7.12502
lthumb -21.8886 5.74204
rfemur -87.2254 -14.3621 19.5465
rtibia 130.742
rfoot 0.0255281 19.4962
rtoes -14.3243
lfemur 4.7681 -17.3443 -6.85484
ltibia 20.9434
lfoot 6.52724 -26.6927
ltoes 21.5123
85
root 1.1652 19.3556 4.25072 -216.509 -48.8733 205.067
lowerback 36.7972 -1.257 -1.81944
upperback 22.702 -8.26656 1.26376
thorax 7.37358 -7.09684 4.04883
lowerneck -12.5932 -6.97356 -3.95065
upperneck 2.47309 -10.6989 18.325
head 4.10935 -4.87335 5.4304
rclavicle 3.81667e-014 2.70347e-014
rhumerus -40.1727 -2.71182 -84.3787
rradius 19.7471
rwrist 19.8107
rhand -3.73512 11.8034
rfingers 7.12502
rthumb 22.0083 -16.9644
lclavicle 3.81667e-014 2.70347e-014
lhumerus 74.792 -20.8726 75.8611
lradius 102.711
lwrist -2.76631
lhand -49.3917 -22.9292
lfingers 7.12502
lthumb -22.0052 5.83902
rfemur -87.8327 -14.5058 19.7798
rtibia 130.89
rfoot 0.0348125 19.6503
rtoes -14.1471
lfemur 4.58386 -17.5943 -6.76006
ltibia 21.7445
lfoot 6.06288 -26.7422
ltoes 21.4952
86
root 1.16823 19.3324 4.247 -216.905 -48.8527 205.317
lowerback 37.0954 -1.2139 -1.69074
upperback 22.8038 -8.24673 1.26106
thorax 7.38287 -7.10266 3.98513
lowerneck -12.4008 -7.11556 -3.94691
upperneck 2.22211 -10.929 18.7781
head 4.06112 -5.0093 5.55413
rclavicle 4.6118e-014 -7.31528e-014
rhumerus -40.2446 -2.61374 -84.3212
rradius 19.6839
rwrist 19.8879
rhand -3.61582 11.7326
rfingers 7.12502
rthumb 22.1228 -17.0217
lclavicle 4.6118e-014 -7.31528e-014
lhumerus 75.4032 -21.3726 75.683
lradius 102.953
lwrist -2.58038
lhand -49.4984 -22.609
lfingers 7.12502
lthumb -22.1076 6.14716
rfemur -88.296 -14.4644 19.9837
rtibia 130.963
rfoot 0.0251501 19.7218
rtoes -13.8898
lfemur 4.413 -17.8611 -6.69949
ltibia 22.5078
lfoot 5.56216 -26.7683
ltoes 21.3183
87
root 1.17122 19.313 4.24368 -217.254 -48.808 205.527
lowerback 37.369 -1.17495 -1.56607
upperback 22.8859 -8.22167 1.23343
thorax 7.37423 -7.09876 3.89664
lowerneck -12.1773 -7.24344 -3.86135
upperneck 1.97467 -11.1411 19.1486
head 3.99718 -5.14046 5.64183
rclavicle 9.85972e-014 -4.92986e-014
rhumerus -40.3362 -2.5316 -84.2924
rradius 19.629
rwrist 19.9689
rhand -3.47732 11.6142
rfingers 7.12502
rthumb 22.2558 -17.1244
lclavicle 9.85972e-014 -4.92986e-014
lhumerus 75.8736 -21.8366 75.4546
lradius 103.291
lwrist -2.38421
lhand -49.579 -22.2792
lfingers 7.12502
lthumb -22.1849 6.4678
rfemur -88.6864 -14.2613 20.1917
rtibia 131.01
rfoot -0.061176 19.7665
rtoes -13.7803
lfemur 4.24572 -18.1093 -6.64769
ltibia 23.2544
lfoot 5.08308 -26.753
ltoes 21.3445
